<svg width="177" height="177" viewBox="0 0 177 177" fill="none" xmlns="http://www.w3.org/2000/svg">
<path d="M163.913 100.838C170.865 59.0503 142.625 19.5393 100.838 12.5874C59.0503 5.63557 19.5393 33.8754 12.5875 75.6628C5.63559 117.45 33.8754 156.961 75.6628 163.913C117.45 170.865 156.961 142.625 163.913 100.838Z" fill="#F4DDD4"/>
<path d="M163.913 100.838C170.865 59.0503 142.625 19.5393 100.838 12.5874C59.0503 5.63557 19.5393 33.8754 12.5875 75.6628C5.63559 117.45 33.8754 156.961 75.6628 163.913C117.45 170.865 156.961 142.625 163.913 100.838Z" fill="#F4E6E1"/>
<mask id="mask0_21_47" style="mask-type:luminance" maskUnits="userSpaceOnUse" x="11" y="11" width="154" height="154">
<path d="M163.913 100.838C170.865 59.0503 142.625 19.5393 100.838 12.5874C59.0503 5.63557 19.5393 33.8754 12.5875 75.6628C5.63559 117.45 33.8754 156.961 75.6628 163.913C117.45 170.865 156.961 142.625 163.913 100.838Z" fill="white"/>
</mask>
<g mask="url(#mask0_21_47)">
<path d="M118.68 75.4059C126.828 60.6549 123.652 35.5929 105.855 29.3719C87.3726 22.9109 71.4606 28.3819 70.0296 38.2959C70.0296 38.2959 60.2526 36.0019 53.7746 46.4659C47.2966 56.9299 51.9516 74.5219 61.6356 85.1609C71.3196 95.7999 112.053 87.4029 118.68 75.4059Z" fill="#5B4852"/>
<path d="M155.074 166.523H21.4366C21.4366 166.523 25.4886 144.11 34.6736 131.208C43.8586 118.298 77.9466 113.591 77.9466 113.591L88.2546 115.181L98.5626 113.591C98.5626 113.591 132.662 118.298 141.847 131.208C151.032 144.11 155.074 166.523 155.074 166.523Z" fill="#D66572"/>
<mask id="mask1_21_47" style="mask-type:luminance" maskUnits="userSpaceOnUse" x="21" y="113" width="135" height="54">
<path d="M155.074 166.523H21.4366C21.4366 166.523 25.4886 144.11 34.6736 131.208C43.8586 118.298 77.9466 113.591 77.9466 113.591L88.2546 115.181L98.5626 113.591C98.5626 113.591 132.662 118.298 141.847 131.208C151.032 144.11 155.074 166.523 155.074 166.523Z" fill="white"/>
</mask>
<g mask="url(#mask1_21_47)">
<path d="M22.6896 121.705H161.64V133.829H12.6676V121.705H22.6896Z" fill="#E28693"/>
<path d="M22.6896 140.108H161.64V152.232H12.6676V140.108H22.6896Z" fill="#E28693"/>
<path d="M22.6896 158.51H161.64V170.635H12.6676V158.51H22.6896Z" fill="#E28693"/>
</g>
<path d="M68.2806 115.288C68.2806 115.288 74.4866 130.713 88.4316 130.713C102.377 130.713 107.642 115.288 107.642 115.288C107.642 115.288 88.7766 108.013 68.2806 115.288Z" fill="#F1B69A"/>
<path d="M88.0326 124.973C83.0326 124.973 78.9806 120.92 78.9806 115.92V98.6279H97.0856V115.92C97.0856 120.92 93.0326 124.973 88.0326 124.973Z" fill="#F1B69A"/>
<path d="M97.0856 96.6269V107.244C97.0856 107.244 94.0456 112.53 88.0326 112.53C83.2016 112.53 78.9816 107.947 78.9816 107.947V96.6269H97.0856Z" fill="#150A08"/>
<path d="M62.7056 78.0409C57.8106 70.6039 52.1326 75.3819 52.1326 80.6169C52.1326 88.1979 60.3556 94.7269 65.0546 89.2859C69.7536 83.8439 62.7056 78.0409 62.7056 78.0409Z" fill="#F1B69A"/>
<path d="M61.6346 81.4758C58.5886 75.7818 54.3776 81.0949 55.9856 83.2039" stroke="#E07E61" stroke-miterlimit="10" stroke-linecap="round"/>
<path d="M111.606 78.0409C116.501 70.6039 122.178 75.3819 122.178 80.6169C122.178 88.1979 113.955 94.7269 109.256 89.2859C104.558 83.8439 111.606 78.0409 111.606 78.0409Z" fill="#F1B69A"/>
<path d="M112.676 81.4758C115.722 75.7818 119.933 81.0949 118.325 83.2039" stroke="#E07E61" stroke-miterlimit="10" stroke-linecap="round"/>
<path d="M87.1326 107.244C67.7896 107.236 56.3516 86.0989 60.8736 64.3959C64.5986 46.5119 109.712 46.5189 113.437 64.3959C117.959 86.0999 106.485 107.252 87.1326 107.244Z" fill="#F1B69A"/>
<path d="M94.6766 57.0579C101.466 45.0619 87.7876 36.6269 81.6326 40.2639C75.4776 43.8999 74.1826 47.9539 74.3886 52.7459C74.3886 52.7459 72.0216 44.3689 66.6696 48.2339C61.3186 52.0999 63.1656 62.8509 63.1656 62.8509L66.6696 64.7359L94.6766 57.0579Z" fill="#F1B69A"/>
<path opacity="0.5" d="M84.5636 85.5179C86.5546 86.4679 91.0386 84.3609 91.1316 85.5179C91.2246 86.6749 88.7526 87.6989 87.8476 87.6989C86.9436 87.6989 84.5636 85.5179 84.5636 85.5179Z" fill="#F1B69A"/>
<path d="M84.6276 79.6859C81.8046 85.7879 86.0256 86.9719 87.1556 87.1189" stroke="#E07E61" stroke-miterlimit="10" stroke-linecap="round"/>
<path d="M80.4026 90.4359C87.8696 91.8699 93.7906 90.6749 96.1816 88.7619" stroke="#150A08" stroke-miterlimit="10" stroke-linecap="round"/>
<path d="M79.5056 63.0559C78.2966 60.3569 71.2136 61.5909 70.2126 63.5129C69.2106 65.4349 72.5256 65.9749 74.9856 65.8539C77.4456 65.7329 80.2756 64.7739 79.5056 63.0559Z" fill="#5B4852"/>
<path d="M94.8056 63.0559C96.0146 60.3569 103.098 61.5909 104.099 63.5129C105.101 65.4349 101.786 65.9749 99.3256 65.8539C96.8656 65.7329 94.0356 64.7739 94.8056 63.0559Z" fill="#5B4852"/>
<path opacity="0.5" d="M85.4136 94.1159C88.1216 94.1229 92.0046 92.7139 92.6056 94.1159C93.2066 95.5179 89.9006 98.3209 87.8496 98.1209C85.7976 97.9209 82.3206 94.1079 85.4136 94.1159Z" fill="#F1B69A"/>
<path d="M74.3886 73.4599C74.3886 74.5349 75.2596 75.4059 76.3346 75.4059C77.4096 75.4059 78.2806 74.5349 78.2806 73.4599C78.2806 72.3849 77.4096 71.5139 76.3346 71.5139C75.2596 71.5139 74.3886 72.3849 74.3886 73.4599Z" fill="#150A08"/>
<path d="M99.9226 73.4599C99.9226 74.5349 99.0516 75.4059 97.9766 75.4059C96.9016 75.4059 96.0306 74.5349 96.0306 73.4599C96.0306 72.3849 96.9016 71.5139 97.9766 71.5139C99.0516 71.5139 99.9226 72.3849 99.9226 73.4599Z" fill="#150A08"/>
<path d="M74.3886 52.7458C75.0986 42.8928 88.8796 49.3699 96.5216 57.5949C105.515 67.2719 112.602 69.0869 118.679 64.7359C124.756 60.3849 116.806 40.7339 97.9766 36.4149C79.1476 32.0959 71.7886 45.8628 74.3886 52.7458Z" fill="#5B4852"/>
<path d="M74.3886 52.7459C70.7796 45.5929 61.6356 58.9699 59.8886 71.5139C58.8386 79.0569 57.5426 69.1669 55.6316 67.2719C53.7216 65.3769 54.0136 50.5369 64.7486 47.2119C75.4836 43.8879 74.3886 52.7459 74.3886 52.7459Z" fill="#5B4852"/>
</g>
</svg>
