<svg width="277" height="87" viewBox="0 0 277 87" fill="none" xmlns="http://www.w3.org/2000/svg">
<path d="M6 26C6 26 41.5 3 138 3C234.5 3 270 26 270 26L277 87H0L6 26Z" fill="url(#paint0_linear_20_6)"/>
<path d="M106.165 35.4912C105.771 35.4912 105.416 35.5596 105.101 35.6963C104.788 35.8298 104.521 36.0251 104.3 36.2822C104.082 36.5361 103.914 36.8438 103.797 37.2051C103.68 37.5664 103.621 37.9733 103.621 38.4258C103.621 39.0247 103.714 39.5456 103.899 39.9883C104.088 40.4277 104.368 40.7679 104.739 41.0088C105.114 41.2497 105.581 41.3701 106.141 41.3701C106.46 41.3701 106.759 41.3441 107.039 41.292C107.322 41.2367 107.597 41.1683 107.864 41.0869V41.8096C107.604 41.9072 107.33 41.9788 107.044 42.0244C106.757 42.0732 106.417 42.0977 106.023 42.0977C105.298 42.0977 104.69 41.9479 104.202 41.6484C103.717 41.3457 103.353 40.9193 103.108 40.3691C102.868 39.819 102.747 39.1696 102.747 38.4209C102.747 37.8805 102.822 37.3874 102.972 36.9414C103.125 36.4922 103.346 36.1048 103.636 35.7793C103.929 35.4538 104.287 35.2031 104.71 35.0273C105.136 34.8483 105.625 34.7588 106.175 34.7588C106.536 34.7588 106.884 34.7946 107.22 34.8662C107.555 34.9378 107.858 35.0404 108.128 35.1738L107.796 35.877C107.568 35.7728 107.317 35.6833 107.044 35.6084C106.774 35.5303 106.481 35.4912 106.165 35.4912ZM110.101 36.6484V42H109.29V36.6484H110.101ZM109.705 34.6465C109.839 34.6465 109.952 34.6904 110.047 34.7783C110.145 34.863 110.193 34.9964 110.193 35.1787C110.193 35.3577 110.145 35.4912 110.047 35.5791C109.952 35.667 109.839 35.7109 109.705 35.7109C109.565 35.7109 109.448 35.667 109.354 35.5791C109.262 35.4912 109.217 35.3577 109.217 35.1787C109.217 34.9964 109.262 34.863 109.354 34.7783C109.448 34.6904 109.565 34.6465 109.705 34.6465ZM114.354 36.5508C114.988 36.5508 115.468 36.707 115.794 37.0195C116.119 37.3288 116.282 37.8268 116.282 38.5137V42H115.481V38.5674C115.481 38.1214 115.379 37.7878 115.174 37.5664C114.972 37.3451 114.661 37.2344 114.241 37.2344C113.649 37.2344 113.232 37.402 112.991 37.7373C112.75 38.0726 112.63 38.5592 112.63 39.1973V42H111.819V36.6484H112.474L112.596 37.4199H112.64C112.754 37.2311 112.898 37.0732 113.074 36.9463C113.25 36.8161 113.447 36.7184 113.665 36.6533C113.883 36.585 114.113 36.5508 114.354 36.5508ZM120.013 36.5508C120.468 36.5508 120.859 36.6517 121.185 36.8535C121.51 37.0553 121.759 37.3385 121.932 37.7031C122.104 38.0645 122.19 38.4876 122.19 38.9727V39.4756H118.494C118.504 40.1038 118.66 40.5824 118.963 40.9111C119.266 41.2399 119.692 41.4043 120.242 41.4043C120.581 41.4043 120.88 41.3734 121.141 41.3115C121.401 41.2497 121.671 41.1585 121.951 41.0381V41.751C121.681 41.8714 121.412 41.9593 121.146 42.0146C120.882 42.07 120.569 42.0977 120.208 42.0977C119.694 42.0977 119.244 41.9935 118.86 41.7852C118.479 41.5736 118.183 41.2643 117.972 40.8574C117.76 40.4505 117.654 39.9525 117.654 39.3633C117.654 38.7871 117.75 38.2891 117.942 37.8691C118.138 37.446 118.411 37.1204 118.763 36.8926C119.118 36.6647 119.534 36.5508 120.013 36.5508ZM120.003 37.2148C119.57 37.2148 119.225 37.3564 118.968 37.6396C118.711 37.9229 118.558 38.3184 118.509 38.8262H121.341C121.338 38.5072 121.287 38.2272 121.189 37.9863C121.095 37.7422 120.95 37.5534 120.755 37.4199C120.56 37.2832 120.309 37.2148 120.003 37.2148ZM129.378 36.5508C129.967 36.5508 130.411 36.7054 130.711 37.0146C131.01 37.3206 131.16 37.8138 131.16 38.4941V42H130.359V38.5332C130.359 38.1003 130.265 37.7764 130.076 37.5615C129.891 37.3434 129.614 37.2344 129.246 37.2344C128.729 37.2344 128.353 37.3841 128.118 37.6836C127.884 37.9831 127.767 38.4242 127.767 39.0068V42H126.961V38.5332C126.961 38.2435 126.919 38.0026 126.834 37.8105C126.753 37.6185 126.629 37.4753 126.463 37.3809C126.3 37.2832 126.093 37.2344 125.843 37.2344C125.488 37.2344 125.203 37.3076 124.988 37.4541C124.773 37.6006 124.617 37.8187 124.52 38.1084C124.425 38.3949 124.378 38.748 124.378 39.168V42H123.567V36.6484H124.222L124.344 37.4053H124.388C124.495 37.2197 124.63 37.0635 124.793 36.9365C124.956 36.8096 125.138 36.7135 125.34 36.6484C125.542 36.5833 125.757 36.5508 125.984 36.5508C126.391 36.5508 126.731 36.6273 127.005 36.7803C127.282 36.93 127.482 37.1595 127.605 37.4688H127.649C127.825 37.1595 128.066 36.93 128.372 36.7803C128.678 36.6273 129.013 36.5508 129.378 36.5508ZM134.827 36.5605C135.465 36.5605 135.939 36.7038 136.248 36.9902C136.557 37.2767 136.712 37.734 136.712 38.3623V42H136.121L135.965 41.209H135.926C135.776 41.4043 135.62 41.5687 135.457 41.7021C135.294 41.8324 135.105 41.9316 134.891 42C134.679 42.0651 134.419 42.0977 134.109 42.0977C133.784 42.0977 133.494 42.0407 133.24 41.9268C132.99 41.8128 132.791 41.6403 132.645 41.4092C132.501 41.1781 132.43 40.8851 132.43 40.5303C132.43 39.9964 132.641 39.5863 133.064 39.2998C133.488 39.0133 134.132 38.8571 134.998 38.8311L135.921 38.792V38.4648C135.921 38.0026 135.822 37.6787 135.623 37.4932C135.424 37.3076 135.145 37.2148 134.783 37.2148C134.503 37.2148 134.236 37.2555 133.982 37.3369C133.729 37.4183 133.488 37.5143 133.26 37.625L133.011 37.0098C133.252 36.8861 133.528 36.7803 133.841 36.6924C134.153 36.6045 134.482 36.5605 134.827 36.5605ZM135.911 39.3633L135.096 39.3975C134.428 39.4235 133.958 39.5326 133.685 39.7246C133.411 39.9167 133.274 40.1885 133.274 40.54C133.274 40.846 133.367 41.0723 133.553 41.2188C133.738 41.3652 133.984 41.4385 134.29 41.4385C134.765 41.4385 135.154 41.3066 135.457 41.043C135.76 40.7793 135.911 40.3838 135.911 39.8564V39.3633ZM145.13 40.1006C145.13 40.5238 145.024 40.8851 144.812 41.1846C144.604 41.4808 144.311 41.707 143.934 41.8633C143.556 42.0195 143.112 42.0977 142.601 42.0977C142.33 42.0977 142.075 42.0846 141.834 42.0586C141.593 42.0326 141.372 41.9951 141.17 41.9463C140.968 41.8975 140.791 41.8372 140.638 41.7656V40.9697C140.882 41.0706 141.18 41.165 141.531 41.2529C141.883 41.3376 142.251 41.3799 142.635 41.3799C142.993 41.3799 143.296 41.3327 143.543 41.2383C143.79 41.1406 143.978 41.0023 144.104 40.8232C144.235 40.641 144.3 40.4229 144.3 40.1689C144.3 39.9248 144.246 39.7214 144.139 39.5586C144.031 39.3926 143.852 39.2428 143.602 39.1094C143.354 38.9727 143.016 38.8278 142.586 38.6748C142.283 38.5674 142.016 38.4502 141.785 38.3232C141.554 38.193 141.36 38.0465 141.204 37.8838C141.048 37.721 140.929 37.5322 140.848 37.3174C140.77 37.1025 140.73 36.8568 140.73 36.5801C140.73 36.1992 140.826 35.8737 141.019 35.6035C141.214 35.3301 141.482 35.1217 141.824 34.9785C142.169 34.832 142.565 34.7588 143.011 34.7588C143.392 34.7588 143.743 34.7946 144.065 34.8662C144.391 34.9378 144.689 35.0339 144.959 35.1543L144.7 35.8672C144.443 35.7598 144.17 35.6702 143.88 35.5986C143.593 35.527 143.297 35.4912 142.991 35.4912C142.685 35.4912 142.426 35.5368 142.215 35.6279C142.007 35.7158 141.847 35.8411 141.736 36.0039C141.626 36.1667 141.57 36.3604 141.57 36.585C141.57 36.8356 141.622 37.0439 141.727 37.21C141.834 37.376 142.003 37.5241 142.234 37.6543C142.469 37.7812 142.778 37.9147 143.162 38.0547C143.582 38.2077 143.938 38.3704 144.231 38.543C144.524 38.7122 144.747 38.9206 144.9 39.168C145.053 39.4121 145.13 39.723 145.13 40.1006ZM148.611 42.0977C148.13 42.0977 147.705 41.9984 147.337 41.7998C146.969 41.6012 146.683 41.2985 146.478 40.8916C146.272 40.4847 146.17 39.972 146.17 39.3535C146.17 38.7057 146.277 38.1768 146.492 37.7666C146.71 37.3532 147.01 37.0472 147.391 36.8486C147.771 36.6501 148.204 36.5508 148.689 36.5508C148.956 36.5508 149.214 36.5785 149.461 36.6338C149.712 36.6859 149.917 36.7526 150.076 36.834L149.832 37.5127C149.669 37.4476 149.48 37.389 149.266 37.3369C149.054 37.2848 148.855 37.2588 148.67 37.2588C148.299 37.2588 147.99 37.3385 147.742 37.498C147.498 37.6576 147.314 37.8919 147.19 38.2012C147.07 38.5104 147.01 38.8913 147.01 39.3438C147.01 39.7767 147.068 40.1462 147.186 40.4521C147.306 40.7581 147.483 40.9925 147.718 41.1553C147.955 41.3148 148.252 41.3945 148.606 41.3945C148.89 41.3945 149.145 41.3652 149.373 41.3066C149.601 41.2448 149.808 41.1732 149.993 41.0918V41.8145C149.814 41.9056 149.614 41.9756 149.393 42.0244C149.174 42.0732 148.914 42.0977 148.611 42.0977ZM153.694 36.5508C153.802 36.5508 153.914 36.5573 154.031 36.5703C154.148 36.5801 154.253 36.5947 154.344 36.6143L154.241 37.3662C154.153 37.3434 154.056 37.3255 153.948 37.3125C153.841 37.2995 153.74 37.293 153.646 37.293C153.431 37.293 153.227 37.3369 153.035 37.4248C152.846 37.5094 152.68 37.6331 152.537 37.7959C152.394 37.9554 152.282 38.1491 152.2 38.377C152.119 38.6016 152.078 38.8522 152.078 39.1289V42H151.263V36.6484H151.937L152.024 37.6348H152.059C152.169 37.4362 152.303 37.2555 152.459 37.0928C152.615 36.9268 152.796 36.7949 153.001 36.6973C153.209 36.5996 153.44 36.5508 153.694 36.5508ZM157.415 36.5508C157.871 36.5508 158.261 36.6517 158.587 36.8535C158.912 37.0553 159.161 37.3385 159.334 37.7031C159.507 38.0645 159.593 38.4876 159.593 38.9727V39.4756H155.896C155.906 40.1038 156.062 40.5824 156.365 40.9111C156.668 41.2399 157.094 41.4043 157.645 41.4043C157.983 41.4043 158.283 41.3734 158.543 41.3115C158.803 41.2497 159.074 41.1585 159.354 41.0381V41.751C159.083 41.8714 158.815 41.9593 158.548 42.0146C158.284 42.07 157.972 42.0977 157.61 42.0977C157.096 42.0977 156.647 41.9935 156.263 41.7852C155.882 41.5736 155.586 41.2643 155.374 40.8574C155.162 40.4505 155.057 39.9525 155.057 39.3633C155.057 38.7871 155.153 38.2891 155.345 37.8691C155.54 37.446 155.813 37.1204 156.165 36.8926C156.52 36.6647 156.937 36.5508 157.415 36.5508ZM157.405 37.2148C156.972 37.2148 156.627 37.3564 156.37 37.6396C156.113 37.9229 155.96 38.3184 155.911 38.8262H158.743C158.74 38.5072 158.689 38.2272 158.592 37.9863C158.497 37.7422 158.353 37.5534 158.157 37.4199C157.962 37.2832 157.711 37.2148 157.405 37.2148ZM163.03 36.5508C163.486 36.5508 163.877 36.6517 164.202 36.8535C164.528 37.0553 164.777 37.3385 164.949 37.7031C165.122 38.0645 165.208 38.4876 165.208 38.9727V39.4756H161.512C161.521 40.1038 161.678 40.5824 161.98 40.9111C162.283 41.2399 162.71 41.4043 163.26 41.4043C163.598 41.4043 163.898 41.3734 164.158 41.3115C164.419 41.2497 164.689 41.1585 164.969 41.0381V41.751C164.699 41.8714 164.43 41.9593 164.163 42.0146C163.899 42.07 163.587 42.0977 163.226 42.0977C162.711 42.0977 162.262 41.9935 161.878 41.7852C161.497 41.5736 161.201 41.2643 160.989 40.8574C160.778 40.4505 160.672 39.9525 160.672 39.3633C160.672 38.7871 160.768 38.2891 160.96 37.8691C161.155 37.446 161.429 37.1204 161.78 36.8926C162.135 36.6647 162.552 36.5508 163.03 36.5508ZM163.021 37.2148C162.588 37.2148 162.243 37.3564 161.985 37.6396C161.728 37.9229 161.575 38.3184 161.526 38.8262H164.358C164.355 38.5072 164.305 38.2272 164.207 37.9863C164.113 37.7422 163.968 37.5534 163.772 37.4199C163.577 37.2832 163.326 37.2148 163.021 37.2148ZM169.119 36.5508C169.754 36.5508 170.234 36.707 170.56 37.0195C170.885 37.3288 171.048 37.8268 171.048 38.5137V42H170.247V38.5674C170.247 38.1214 170.145 37.7878 169.939 37.5664C169.738 37.3451 169.427 37.2344 169.007 37.2344C168.414 37.2344 167.998 37.402 167.757 37.7373C167.516 38.0726 167.396 38.5592 167.396 39.1973V42H166.585V36.6484H167.239L167.361 37.4199H167.405C167.519 37.2311 167.664 37.0732 167.84 36.9463C168.016 36.8161 168.213 36.7184 168.431 36.6533C168.649 36.585 168.878 36.5508 169.119 36.5508Z" fill="#ADADAD"/>
<path d="M6 24C6 24 46.8333 2 136 2C225.167 2 266 24 266 24" stroke="#FF748C" stroke-width="4" stroke-linecap="round"/>
<defs>
<linearGradient id="paint0_linear_20_6" x1="138.5" y1="3" x2="139" y2="58.5" gradientUnits="userSpaceOnUse">
<stop stop-color="#FAC6CF"/>
<stop offset="1" stop-color="white" stop-opacity="0"/>
</linearGradient>
</defs>
</svg>
